# xmcd
#
# Track frame offsets: 
#        150
#        17897
#        35469
#        52770
#        70022
#
# Disc length: 1162 seconds
#
# Revision: 0
# Processed by: cddbd v1.5.2PL0 Copyright (c) Steve Scherf et al.
# Submitted via: ExactAudioCopy v1.3
#
DISCID=35048805
DTITLE=Andy Layfield - On This Road
DYEAR=2017
DGENRE=Blues Rock
TTITLE0=Mr. Bankman
TTITLE1=Roosterman
TTITLE2=No Horses
TTITLE3=Cougar
TTITLE4=Matrix
EXTD=
EXTT0=
EXTT1=
EXTT2=
EXTT3=
EXTT4=
PLAYORDER=
